<?xml version="1.0" encoding="UTF-8" standalone="no" ?>
<!DOCTYPE svg PUBLIC "-//W3C//DTD SVG 1.1//EN" "http://www.w3.org/Graphics/SVG/1.1/DTD/svg11.dtd">
<svg xmlns="http://www.w3.org/2000/svg" xmlns:xlink="http://www.w3.org/1999/xlink" version="1.1" width="1080" height="1080" viewBox="0 0 1080 1080" xml:space="preserve">
<desc>Created with Fabric.js 5.2.4</desc>
<defs>
</defs>
<g transform="matrix(1 0 0 1 540 540)" id="775401dd-61cc-4caa-83fd-f401312d8ffe"  >
<rect style="stroke: none; stroke-width: 1; stroke-dasharray: none; stroke-linecap: butt; stroke-dashoffset: 0; stroke-linejoin: miter; stroke-miterlimit: 4; fill: rgb(255,255,255); fill-rule: nonzero; opacity: 1; visibility: hidden;" vector-effect="non-scaling-stroke"  x="-540" y="-540" rx="0" ry="0" width="1080" height="1080" />
</g>
<g transform="matrix(1 0 0 1 540 540)" id="23154983-fee3-4597-8b83-132060fd3379"  >
</g>
<g transform="matrix(1 0 0 1 540 540)"  >
<g style="" vector-effect="non-scaling-stroke"   >
		<g transform="matrix(5.47 0 0 -5.47 83.78 0)" id="path1603" clip-path="url(#CLIPPATH_3)"  >
<clipPath id="CLIPPATH_3" >
	<path transform="matrix(1 0 0 1 -176.26 -374.57) translate(-297.64, -420.94)" id="path1597" d="M 0 0 L 595.276 0 L 595.276 841.89 L 0 841.89 Z" stroke-linecap="round" />
</clipPath>
<path style="stroke: none; stroke-width: 1; stroke-dasharray: none; stroke-linecap: butt; stroke-dashoffset: 0; stroke-linejoin: miter; stroke-miterlimit: 4; fill: rgb(255,255,255); fill-rule: nonzero; opacity: 1;" vector-effect="non-scaling-stroke"  transform=" translate(-0.33, -13.6)" d="M 0 0 C 0 0 -1.662 3.547 -3.203 6.892 C -4.577999999999999 9.832 -5.871 12.600999999999999 -5.927 12.722000000000001 C -6.023 12.914000000000001 -6.124 13.278000000000002 -6.028 13.682000000000002 C -5.946999999999999 13.975000000000001 -5.608 14.511000000000003 -5.361 14.834000000000001 C -4.881 15.435000000000002 -4.718999999999999 15.764000000000001 -4.654 16.203000000000003 L 2.39 1.102 L 3.228 -0.682 C 4.097 -0.51 4.951 -0.242 5.744 0.091 C 4.8 2.137 3.824 4.234 3.228 5.558 L 3.203 5.553 C 3.203 5.553 -2.602 18.027 -2.7079999999999997 18.259 C -2.8139999999999996 18.457 -2.9459999999999997 18.805 -2.8139999999999996 19.23 C -2.7439999999999998 19.538 -2.3949999999999996 20.053 -2.1329999999999996 20.387 C -1.6619999999999995 20.998 -1.5109999999999997 21.306 -1.4549999999999996 21.746000000000002 L 3.875 10.327 L 8.109 1.268 C 8.857 1.774 9.574 2.319 10.221 2.93 C 8.952 5.669 7.265 9.291 6.422 11.1 L 6.416 11.1 C 6.416 11.1 0.6110000000000007 23.58 0.4950000000000001 23.826999999999998 C 0.39900000000000013 24.019 0.27800000000000014 24.392999999999997 0.3790000000000001 24.772 C 0.45900000000000013 25.075 0.8190000000000002 25.631 1.081 25.939 C 1.546 26.555 1.697 26.879 1.748 27.324 L 7.164 15.713 L 12.125 5.073 C 13.859 7.488 14.899000000000001 10.413 14.899000000000001 13.596 C 14.899000000000001 21.639 8.366 28.168 0.3230000000000004 28.168 C -7.719999999999999 28.168 -14.238 21.639 -14.238 13.596 C -14.238 7.821 -10.888 2.8599999999999994 -6.027999999999999 0.5060000000000002 C -7.527999999999999 3.7140000000000004 -9.075 7.0280000000000005 -9.124999999999998 7.174 C -9.220999999999998 7.346 -9.351999999999999 7.710000000000001 -9.220999999999998 8.104000000000001 C -9.165 8.423000000000002 -8.800999999999998 8.953000000000001 -8.543999999999999 9.266000000000002 C -8.059 9.888000000000002 -7.911999999999999 10.216000000000001 -7.866999999999999 10.651000000000002 L -2.581999999999999 -0.6819999999999986 C -1.641999999999999 -0.8789999999999987 -0.6569999999999989 -0.9699999999999986 0.32300000000000084 -0.9699999999999986 L 0.444 -0.9699999999999986 C 0.308 -0.656 0.146 -0.318 0 0" stroke-linecap="round" />
</g>
		<g transform="matrix(5.47 0 0 -5.47 -442.08 0.46)" id="path1607" clip-path="url(#CLIPPATH_4)"  >
<clipPath id="CLIPPATH_4" >
	<path transform="matrix(1 0 0 1 -80.05 -374.48) translate(-297.64, -420.94)" id="path1597" d="M 0 0 L 595.276 0 L 595.276 841.89 L 0 841.89 Z" stroke-linecap="round" />
</clipPath>
<path style="stroke: none; stroke-width: 1; stroke-dasharray: none; stroke-linecap: butt; stroke-dashoffset: 0; stroke-linejoin: miter; stroke-miterlimit: 4; fill: rgb(255,255,255); fill-rule: nonzero; opacity: 1;" vector-effect="non-scaling-stroke"  transform=" translate(-1.13, 1)" d="M 0 0 L 2.638 0 C 3.425 0 4.138 0.152 4.734 0.435 C 5.583 0.813 6.224 1.405 6.715 2.233 C 7.225 3.027 7.462 3.946 7.462 4.9670000000000005 C 7.462 6.109 7.124 6.9270000000000005 6.442 7.392 C 5.967 7.751 5.068 7.912 3.8 7.912 C 3.062 7.912 2.547 7.831 2.294 7.669 C 2.036 7.533 1.854 7.21 1.733 6.796 Z M -0.374 -1.283 L -0.374 -1.283 L -2.228 -8.554 C -2.289 -8.751 -2.314 -8.953 -2.314 -9.14 C -2.314 -9.397 -2.208 -9.579 -2.016 -9.701 C -1.798 -9.842 -1.405 -9.882 -0.808 -9.882 L 1.41 -9.882 C 2.476 -9.882 3.355 -9.701 4.0569999999999995 -9.291 C 4.7749999999999995 -8.892 5.350999999999999 -8.25 5.8149999999999995 -7.371 C 6.26 -6.492000000000001 6.486999999999999 -5.537000000000001 6.486999999999999 -4.572000000000001 C 6.486999999999999 -3.537000000000001 6.158999999999999 -2.7590000000000012 5.507 -2.163000000000001 C 4.8549999999999995 -1.5810000000000013 3.885 -1.2830000000000013 2.6379999999999995 -1.2830000000000013 z M -5.103 9.19 L -5.103 9.19 L 6.194 9.19 C 7.963 9.19 9.347 8.786 10.292 7.957999999999999 C 11.241999999999999 7.153999999999999 11.732 6.092999999999999 11.732 4.809999999999999 C 11.732 3.4359999999999986 11.241999999999999 2.2989999999999986 10.256 1.3839999999999986 C 9.281 0.435 7.675 -0.161 5.431 -0.47 C 7.194 -0.627 8.533 -1.137 9.472999999999999 -2.016 C 10.373 -2.87 10.847999999999999 -3.996 10.847999999999999 -5.33 C 10.847999999999999 -6.518 10.498999999999999 -7.589 9.796999999999999 -8.523 C 9.255999999999998 -9.215 8.366999999999999 -9.812 7.123999999999999 -10.362 C 5.865999999999999 -10.903 4.526999999999999 -11.181000000000001 3.0619999999999985 -11.181000000000001 L -9.463 -11.181000000000001 L -9.17 -9.958 L -7.846 -9.958 C -7.063 -9.958 -6.578 -9.524000000000001 -6.396 -8.716000000000001 L -2.481 6.608999999999998 C -2.435 6.7959999999999985 -2.42 6.981999999999998 -2.42 7.153999999999998 C -2.42 7.391999999999998 -2.506 7.583999999999998 -2.693 7.750999999999998 C -2.9 7.9019999999999975 -3.2640000000000002 7.9579999999999975 -3.754 7.9579999999999975 L -5.401 7.9579999999999975 z" stroke-linecap="round" />
</g>
		<g transform="matrix(5.47 0 0 -5.47 -328.29 0.46)" id="path1611" clip-path="url(#CLIPPATH_5)"  >
<clipPath id="CLIPPATH_5" >
	<path transform="matrix(1 0 0 1 -100.87 -374.49) translate(-297.64, -420.94)" id="path1597" d="M 0 0 L 595.276 0 L 595.276 841.89 L 0 841.89 Z" stroke-linecap="round" />
</clipPath>
<path style="stroke: none; stroke-width: 1; stroke-dasharray: none; stroke-linecap: butt; stroke-dashoffset: 0; stroke-linejoin: miter; stroke-miterlimit: 4; fill: rgb(255,255,255); fill-rule: nonzero; opacity: 1;" vector-effect="non-scaling-stroke"  transform=" translate(2.02, 5.1)" d="M 0 0 L -4.466 -7.28 L 0.97 -7.28 Z M 1.511 5.088 L 1.511 5.088 L 3.349 5.088 L 5.638 -12.47 C 5.709 -13.020000000000001 5.8709999999999996 -13.404 6.133 -13.611 C 6.502 -13.894 6.997 -14.061 7.599 -14.061 L 8.2 -14.061 L 7.882 -15.283 L -1.061 -15.283 L -0.768 -14.061 L -0.09599999999999997 -14.061 C 0.596 -14.061 1.0459999999999998 -13.975 1.314 -13.778 C 1.561 -13.596 1.698 -13.303 1.698 -12.934000000000001 C 1.698 -12.793000000000001 1.672 -12.656 1.637 -12.47 L 1.167 -8.831000000000001 L -5.396 -8.831000000000001 L -6.71 -10.939000000000002 C -7.068 -11.555000000000001 -7.24 -12.106000000000002 -7.24 -12.596000000000002 C -7.24 -13.056000000000003 -7.099 -13.414000000000001 -6.831 -13.667000000000002 C -6.548 -13.915000000000001 -6.1080000000000005 -14.061000000000002 -5.5120000000000005 -14.061000000000002 L -4.982 -14.061000000000002 L -5.28 -15.283000000000001 L -12.247 -15.283000000000001 L -11.924 -14.061000000000002 C -11.337 -14.005000000000003 -10.857 -13.874000000000002 -10.519 -13.611000000000002 C -9.837 -13.111000000000002 -9.326 -12.561000000000002 -8.988 -12.000000000000002 z" stroke-linecap="round" />
</g>
		<g transform="matrix(5.47 0 0 -5.47 -198.43 0.46)" id="path1615" clip-path="url(#CLIPPATH_6)"  >
<clipPath id="CLIPPATH_6" >
	<path transform="matrix(1 0 0 1 -124.63 -374.49) translate(-297.64, -420.94)" id="path1597" d="M 0 0 L 595.276 0 L 595.276 841.89 L 0 841.89 Z" stroke-linecap="round" />
</clipPath>
<path style="stroke: none; stroke-width: 1; stroke-dasharray: none; stroke-linecap: butt; stroke-dashoffset: 0; stroke-linejoin: miter; stroke-miterlimit: 4; fill: rgb(255,255,255); fill-rule: nonzero; opacity: 1;" vector-effect="non-scaling-stroke"  transform=" translate(-7.21, 10.19)" d="M 0 0 L 5.841 0 L 12.408000000000001 -14.182 L 14.708000000000002 -4.204000000000001 C 14.824000000000002 -3.7690000000000006 14.879000000000001 -3.4160000000000004 14.879000000000001 -3.1680000000000006 C 14.879000000000001 -2.5820000000000007 14.667000000000002 -2.1070000000000007 14.313 -1.7680000000000007 C 13.939 -1.4200000000000008 13.439 -1.2330000000000005 12.823 -1.2330000000000005 L 12.272 -1.2330000000000005 L 12.58 0 L 19.285 0 L 18.946 -1.233 C 18.254 -1.258 17.713 -1.465 17.355 -1.829 C 16.835 -2.36 16.471 -3.077 16.259 -3.966 L 12.474 -20.371 L 10.958 -20.371 L 3.4 -4.209 L 0.419 -15.435 C 0.278 -15.97 0.207 -16.39 0.207 -16.754 C 0.207 -17.456000000000003 0.45499999999999996 -18.022000000000002 0.8989999999999999 -18.457 C 1.3689999999999998 -18.891000000000002 2.036 -19.114 2.905 -19.149 L 2.622 -20.371 L -4.87 -20.371 L -4.572 -19.148999999999997 C -3.729 -19.092999999999996 -2.996 -18.839999999999996 -2.461 -18.339999999999996 C -1.9149999999999998 -17.829999999999995 -1.5309999999999997 -17.177999999999997 -1.3079999999999998 -16.308999999999997 L 2.198 -3.1679999999999975 C 2.273 -2.8349999999999973 2.319 -2.5869999999999975 2.319 -2.4299999999999975 C 2.319 -2.0659999999999976 2.178 -1.7729999999999975 1.88 -1.5359999999999974 C 1.581 -1.3389999999999973 1.0659999999999998 -1.2329999999999974 0.33799999999999986 -1.2329999999999974 L -0.3490000000000002 -1.2329999999999974 z" stroke-linecap="round" />
</g>
		<g transform="matrix(5.47 0 0 -5.47 -76.21 0.46)" id="path1619" clip-path="url(#CLIPPATH_7)"  >
<clipPath id="CLIPPATH_7" >
	<path transform="matrix(1 0 0 1 -146.99 -374.49) translate(-297.64, -420.94)" id="path1597" d="M 0 0 L 595.276 0 L 595.276 841.89 L 0 841.89 Z" stroke-linecap="round" />
</clipPath>
<path style="stroke: none; stroke-width: 1; stroke-dasharray: none; stroke-linecap: butt; stroke-dashoffset: 0; stroke-linejoin: miter; stroke-miterlimit: 4; fill: rgb(255,255,255); fill-rule: nonzero; opacity: 1;" vector-effect="non-scaling-stroke"  transform=" translate(-6.91, 10.19)" d="M 0 0 L 9.089 0 L 8.725 -1.233 L 7.694999999999999 -1.233 C 7.225 -1.233 6.890999999999999 -1.3390000000000002 6.654 -1.536 C 6.416 -1.7730000000000001 6.224 -2.152 6.073 -2.7030000000000003 L 4.032 -10.786999999999999 L 11.843 -3.6629999999999994 C 12.414 -3.1419999999999995 12.686 -2.6679999999999993 12.686 -2.2639999999999993 C 12.686 -1.9549999999999994 12.565 -1.7129999999999992 12.343 -1.5209999999999995 C 12.105 -1.3389999999999995 11.732 -1.2329999999999994 11.237 -1.2329999999999994 L 10.736 -1.2329999999999994 L 11.049 0 L 18.537 0 L 18.233999999999998 -1.233 C 17.43 -1.284 16.749 -1.465 16.177 -1.723 C 15.616999999999999 -2.016 14.924999999999999 -2.552 14.136 -3.314 L 8.992999999999999 -8.003 L 13.459 -17.845 C 13.606 -18.198999999999998 13.778 -18.441 13.965 -18.602999999999998 C 14.152 -18.769 14.435 -18.900999999999996 14.798 -19.031999999999996 C 15.021 -19.092999999999996 15.455 -19.148999999999997 16.117 -19.148999999999997 L 15.809000000000001 -20.371 L 6.689000000000002 -20.371 L 7.028000000000002 -19.148999999999997 L 8.21 -19.148999999999997 C 8.655000000000001 -19.148999999999997 8.973 -19.063 9.15 -18.900999999999996 C 9.362 -18.754999999999995 9.458 -18.547999999999995 9.458 -18.329999999999995 C 9.458 -18.137999999999995 9.423 -17.940999999999995 9.337 -17.774999999999995 L 6.098 -10.634999999999994 L 3.461 -13.050999999999995 L 2.183 -18.006999999999994 C 2.178 -18.117999999999995 2.163 -18.213999999999995 2.163 -18.329999999999995 C 2.163 -18.587999999999994 2.258 -18.784999999999993 2.465 -18.920999999999996 C 2.647 -19.062999999999995 3.011 -19.148999999999997 3.501 -19.148999999999997 L 4.901 -19.148999999999997 L 4.582 -20.371 L -4.7090000000000005 -20.371 L -4.37 -19.148999999999997 L -3.587 -19.148999999999997 C -3.067 -19.148999999999997 -2.673 -19.031999999999996 -2.4000000000000004 -18.839999999999996 C -2.168 -18.627999999999997 -1.9750000000000003 -18.329999999999995 -1.8740000000000003 -17.844999999999995 L 2.0359999999999996 -2.5369999999999955 C 2.0809999999999995 -2.3949999999999956 2.1069999999999998 -2.2339999999999955 2.1069999999999998 -2.0969999999999955 C 2.1069999999999998 -1.8189999999999955 2.001 -1.6119999999999957 1.8029999999999997 -1.4399999999999955 C 1.5969999999999998 -1.3139999999999956 1.2629999999999997 -1.2329999999999954 0.7779999999999998 -1.2329999999999954 L -0.28800000000000026 -1.2329999999999954 z" stroke-linecap="round" />
</g>
		<g transform="matrix(5.47 0 0 -5.47 237.14 0.46)" id="path1623" clip-path="url(#CLIPPATH_8)"  >
<clipPath id="CLIPPATH_8" >
	<path transform="matrix(1 0 0 1 -204.32 -374.49) translate(-297.64, -420.94)" id="path1597" d="M 0 0 L 595.276 0 L 595.276 841.89 L 0 841.89 Z" stroke-linecap="round" />
</clipPath>
<path style="stroke: none; stroke-width: 1; stroke-dasharray: none; stroke-linecap: butt; stroke-dashoffset: 0; stroke-linejoin: miter; stroke-miterlimit: 4; fill: rgb(255,255,255); fill-rule: nonzero; opacity: 1;" vector-effect="non-scaling-stroke"  transform=" translate(-1.26, -8.89)" d="M 0 0 C 0.965 0 1.92 0.247 2.799 0.742 C 3.693 1.263 4.466 2.01 5.133 2.991 C 5.8 3.946 6.376 5.325 6.891 7.154 C 7.386 8.968 7.649 10.695 7.649 12.378 C 7.649 14.142 7.245 15.516 6.452 16.496000000000002 C 5.739 17.360000000000003 4.648 17.794000000000004 3.198 17.794000000000004 C 2.5309999999999997 17.794000000000004 2.0869999999999997 17.719000000000005 1.8539999999999999 17.557000000000006 C 1.642 17.42 1.455 17.133 1.344 16.764 L -2.612 1.243 C -2.648 1.101 -2.648 0.97 -2.648 0.859 C -2.648 0.571 -2.567 0.373 -2.44 0.247 C -2.228 0.07 -1.93 0 -1.546 0 Z M -5.3 19.073 L -5.3 19.073 L 3.8950000000000005 19.073 C 6.522 19.073 8.539000000000001 18.365000000000002 9.933 16.92 C 11.312 15.480000000000002 12.025 13.454 12.025 10.898000000000001 C 12.025 9.226 11.706 7.583000000000002 11.105 5.967000000000001 C 10.474 4.345 9.726 3.036 8.771 2.021 C 7.836 1.04 6.619 0.222 5.153 -0.394 C 3.673 -1.001 2.006 -1.299 0.176 -1.299 L -9.514 -1.299 L -9.18 -0.07599999999999985 L -8.109 -0.07599999999999985 C -7.367 -0.07599999999999985 -6.902 0.37300000000000016 -6.684 1.2780000000000002 L -2.7790000000000004 16.652 C -2.7380000000000004 16.764 -2.7180000000000004 16.875 -2.7180000000000004 17.011000000000003 C -2.7180000000000004 17.274000000000004 -2.8240000000000003 17.466 -3.0210000000000004 17.633000000000003 C -3.2130000000000005 17.759000000000004 -3.6020000000000003 17.840000000000003 -4.168 17.840000000000003 L -5.699 17.840000000000003 z" stroke-linecap="round" />
</g>
		<g transform="matrix(5.47 0 0 -5.47 367.73 0.46)" id="path1627" clip-path="url(#CLIPPATH_9)"  >
<clipPath id="CLIPPATH_9" >
	<path transform="matrix(1 0 0 1 -228.22 -374.49) translate(-297.64, -420.94)" id="path1597" d="M 0 0 L 595.276 0 L 595.276 841.89 L 0 841.89 Z" stroke-linecap="round" />
</clipPath>
<path style="stroke: none; stroke-width: 1; stroke-dasharray: none; stroke-linecap: butt; stroke-dashoffset: 0; stroke-linejoin: miter; stroke-miterlimit: 4; fill: rgb(255,255,255); fill-rule: nonzero; opacity: 1;" vector-effect="non-scaling-stroke"  transform=" translate(-6.94, 10.19)" d="M 0 0 L 9.104 0 L 8.72 -1.233 L 7.705 -1.233 C 7.225 -1.233 6.886 -1.3390000000000002 6.649 -1.536 C 6.407 -1.773 6.235 -2.152 6.093 -2.703 L 4.047000000000001 -10.786999999999999 L 11.848 -3.6629999999999994 C 12.409 -3.1419999999999995 12.707 -2.6679999999999993 12.707 -2.2639999999999993 C 12.707 -1.9549999999999994 12.58 -1.7129999999999992 12.343 -1.5209999999999995 C 12.085 -1.3389999999999995 11.747 -1.2329999999999994 11.272 -1.2329999999999994 L 10.736 -1.2329999999999994 L 11.049 0 L 18.563 0 L 18.218999999999998 -1.233 C 17.429999999999996 -1.284 16.743 -1.465 16.192999999999998 -1.723 C 15.626999999999997 -2.016 14.934999999999999 -2.552 14.120999999999999 -3.314 L 8.988 -8.003 L 13.485 -17.845 C 13.606 -18.198999999999998 13.783 -18.441 13.95 -18.602999999999998 C 14.130999999999998 -18.769 14.428999999999998 -18.900999999999996 14.787999999999998 -19.031999999999996 C 15.029999999999998 -19.092999999999996 15.469999999999999 -19.148999999999997 16.122 -19.148999999999997 L 15.804 -20.371 L 6.699 -20.371 L 7.043 -19.148999999999997 L 8.2 -19.148999999999997 C 8.655 -19.148999999999997 8.963 -19.063 9.16 -18.900999999999996 C 9.362 -18.754999999999995 9.443 -18.547999999999995 9.443 -18.329999999999995 C 9.443 -18.137999999999995 9.418 -17.940999999999995 9.317 -17.774999999999995 L 6.103 -10.634999999999994 L 3.461 -13.050999999999995 L 2.208 -18.006999999999994 C 2.1620000000000004 -18.117999999999995 2.1620000000000004 -18.213999999999995 2.1620000000000004 -18.329999999999995 C 2.1620000000000004 -18.587999999999994 2.2690000000000006 -18.784999999999993 2.4610000000000003 -18.920999999999996 C 2.6530000000000005 -19.062999999999995 3.0210000000000004 -19.148999999999997 3.5060000000000002 -19.148999999999997 L 4.885 -19.148999999999997 L 4.572 -20.371 L -4.688999999999999 -20.371 L -4.364999999999999 -19.148999999999997 L -3.5819999999999994 -19.148999999999997 C -3.0469999999999993 -19.148999999999997 -2.6629999999999994 -19.031999999999996 -2.3999999999999995 -18.839999999999996 C -2.1569999999999996 -18.627999999999997 -1.9599999999999995 -18.329999999999995 -1.8539999999999994 -17.844999999999995 L 2.0360000000000005 -2.5369999999999955 C 2.0860000000000003 -2.3949999999999956 2.1120000000000005 -2.2339999999999955 2.1120000000000005 -2.0969999999999955 C 2.1120000000000005 -1.8189999999999955 2.0210000000000004 -1.6119999999999957 1.7890000000000006 -1.4399999999999955 C 1.6170000000000007 -1.3139999999999956 1.2530000000000006 -1.2329999999999954 0.7730000000000006 -1.2329999999999954 L -0.3029999999999995 -1.2329999999999954 z" stroke-linecap="round" />
</g>
		<g transform="matrix(5.47 0 0 -5.47 462.06 0.46)" id="path1631" clip-path="url(#CLIPPATH_10)"  >
<clipPath id="CLIPPATH_10" >
	<path transform="matrix(1 0 0 1 -245.48 -374.49) translate(-297.64, -420.94)" id="path1597" d="M 0 0 L 595.276 0 L 595.276 841.89 L 0 841.89 Z" stroke-linecap="round" />
</clipPath>
<path style="stroke: none; stroke-width: 1; stroke-dasharray: none; stroke-linecap: butt; stroke-dashoffset: 0; stroke-linejoin: miter; stroke-miterlimit: 4; fill: rgb(255,255,255); fill-rule: nonzero; opacity: 1;" vector-effect="non-scaling-stroke"  transform=" translate(-2.63, 10.19)" d="M 0 0 L 9.569 0 L 9.256 -1.233 L 8.155 -1.233 C 7.603999999999999 -1.233 7.244999999999999 -1.314 7.037999999999999 -1.465 C 6.815999999999999 -1.627 6.638999999999999 -1.905 6.547999999999999 -2.2640000000000002 L 2.587 -17.83 C 2.5610000000000004 -18.002 2.5410000000000004 -18.144 2.5410000000000004 -18.253999999999998 C 2.5410000000000004 -18.537 2.6120000000000005 -18.749 2.7840000000000003 -18.865999999999996 C 3.0520000000000005 -19.062999999999995 3.4210000000000003 -19.148999999999997 3.9160000000000004 -19.148999999999997 L 5.351000000000001 -19.148999999999997 L 5.007000000000001 -20.371 L -4.314999999999999 -20.371 L -3.9959999999999987 -19.148999999999997 L -2.9509999999999987 -19.148999999999997 C -2.182999999999999 -19.148999999999997 -1.7279999999999986 -18.784999999999997 -1.5709999999999988 -18.072999999999997 L 2.39 -2.582 C 2.451 -2.395 2.451 -2.213 2.451 -2.062 C 2.451 -1.799 2.365 -1.6069999999999998 2.178 -1.44 C 1.98 -1.288 1.6829999999999998 -1.2329999999999999 1.238 -1.2329999999999999 L -0.2829999999999999 -1.2329999999999999 z" stroke-linecap="round" />
</g>
</g>
</g>
</svg>